HIERARCHY
ROOT hip
{
  OFFSET 0 0 0
  CHANNELS 6 Xposition Yposition Zposition Zrotation Yrotation Xrotation
  JOINT abdomen
  {
    OFFSET 0 20.6881 -0.73152
    CHANNELS 3 Zrotation Xrotation Yrotation
    JOINT chest
    {
      OFFSET 0 11.7043 -0.48768
      CHANNELS 3 Zrotation Xrotation Yrotation
      JOINT neck
      {
        OFFSET 0 22.1894 -2.19456
        CHANNELS 3 Zrotation Xrotation Yrotation
        JOINT head
        {
          OFFSET -0.24384 7.07133 1.2192
          CHANNELS 3 Zrotation Xrotation Yrotation
          JOINT leftEye
          {
            OFFSET 4.14528 8.04674 8.04672
            CHANNELS 3 Zrotation Xrotation Yrotation
            End Site
            {
              OFFSET 1 0 0
            }
          }
          JOINT rightEye
          {
            OFFSET -3.6576 8.04674 8.04672
            CHANNELS 3 Zrotation Xrotation Yrotation
            End Site
            {
              OFFSET 1 0 0
            }
          }
        }
      }
      JOINT rCollar
      {
        OFFSET -2.68224 19.2634 -4.8768
        CHANNELS 3 Zrotation Xrotation Yrotation
        JOINT rShldr
        {
          OFFSET -8.77824 -1.95073 1.46304
          CHANNELS 3 Zrotation Xrotation Yrotation
          JOINT rForeArm
          {
            OFFSET -28.1742 -1.7115 0.48768
            CHANNELS 3 Zrotation Xrotation Yrotation
            JOINT rHand
            {
              OFFSET -22.5879 0.773209 7.07136
              CHANNELS 3 Zrotation Xrotation Yrotation
              JOINT rThumb1
              {
                OFFSET -1.2192 -0.487915 3.41376
                CHANNELS 3 Zrotation Xrotation Yrotation
                JOINT rThumb2
                {
                  OFFSET -3.37035 -0.52449 3.41376
                  CHANNELS 3 Zrotation Xrotation Yrotation
                  End Site
                  {
                    OFFSET -1.78271 -1.18214 1.43049
                  }
                }
              }
              JOINT rIndex1
              {
                OFFSET -7.75947 0.938293 5.60832
                CHANNELS 3 Zrotation Xrotation Yrotation
                JOINT rIndex2
                {
                  OFFSET -2.54057 -0.884171 1.56538
                  CHANNELS 3 Zrotation Xrotation Yrotation
                  End Site
                  {
                    OFFSET -1.62519 -0.234802 1.16502
                  }
                }
              }
              JOINT rMid1
              {
                OFFSET -8.24714 1.18213 3.41376
                CHANNELS 3 Zrotation Xrotation Yrotation
                JOINT rMid2
                {
                  OFFSET -3.10165 -0.590103 1.0647
                  CHANNELS 3 Zrotation Xrotation Yrotation
                  End Site
                  {
                    OFFSET -2.48547 -0.328903 0.83742
                  }
                }
              }
              JOINT rRing1
              {
                OFFSET -8.82822 0.546677 1.51678
                CHANNELS 3 Zrotation Xrotation Yrotation
                JOINT rRing2
                {
                  OFFSET -2.60934 -0.819778 -0.0198488
                  CHANNELS 3 Zrotation Xrotation Yrotation
                  End Site
                  {
                    OFFSET -2.33842 -0.294052 0.168128
                  }
                }
              }
              JOINT rPinky1
              {
                OFFSET -8.27202 -0.0477905 -0.4584
                CHANNELS 3 Zrotation Xrotation Yrotation
                JOINT rPinky2
                {
                  OFFSET -1.82734 -0.647385 -0.700984
                  CHANNELS 3 Zrotation Xrotation Yrotation
                  End Site
                  {
                    OFFSET -1.69225 -0.51767 -0.607171
                  }
                }
              }
            }
          }
        }
      }
      JOINT lCollar
      {
        OFFSET 2.68224 19.2634 -4.8768
        CHANNELS 3 Zrotation Xrotation Yrotation
        JOINT lShldr
        {
          OFFSET 8.77824 -1.95073 1.46304
          CHANNELS 3 Zrotation Xrotation Yrotation
          JOINT lForeArm
          {
            OFFSET 28.1742 -1.7115 0.48768
            CHANNELS 3 Zrotation Xrotation Yrotation
            JOINT lHand
            {
              OFFSET 22.5879 0.773209 7.07136
              CHANNELS 3 Zrotation Xrotation Yrotation
              JOINT lThumb1
              {
                OFFSET 1.2192 -0.487915 3.41376
                CHANNELS 3 Zrotation Xrotation Yrotation
                JOINT lThumb2
                {
                  OFFSET 3.37035 -0.52449 3.41376
                  CHANNELS 3 Zrotation Xrotation Yrotation
                  End Site
                  {
                    OFFSET 1.78271 -1.18214 1.43049
                  }
                }
              }
              JOINT lIndex1
              {
                OFFSET 7.75947 0.938293 5.60832
                CHANNELS 3 Zrotation Xrotation Yrotation
                JOINT lIndex2
                {
                  OFFSET 2.54057 -0.884171 1.56538
                  CHANNELS 3 Zrotation Xrotation Yrotation
                  End Site
                  {
                    OFFSET 1.62519 -0.234802 1.16502
                  }
                }
              }
              JOINT lMid1
              {
                OFFSET 8.24714 1.18213 3.41376
                CHANNELS 3 Zrotation Xrotation Yrotation
                JOINT lMid2
                {
                  OFFSET 3.10165 -0.590103 1.0647
                  CHANNELS 3 Zrotation Xrotation Yrotation
                  End Site
                  {
                    OFFSET 2.48547 -0.328903 0.83742
                  }
                }
              }
              JOINT lRing1
              {
                OFFSET 8.82822 0.546677 1.51678
                CHANNELS 3 Zrotation Xrotation Yrotation
                JOINT lRing2
                {
                  OFFSET 2.60934 -0.819778 -0.0198488
                  CHANNELS 3 Zrotation Xrotation Yrotation
                  End Site
                  {
                    OFFSET 2.33842 -0.294052 0.168128
                  }
                }
              }
              JOINT lPinky1
              {
                OFFSET 8.27202 -0.0477905 -0.4584
                CHANNELS 3 Zrotation Xrotation Yrotation
                JOINT lPinky2
                {
                  OFFSET 1.82734 -0.647385 -0.700984
                  CHANNELS 3 Zrotation Xrotation Yrotation
                  End Site
                  {
                    OFFSET 1.69225 -0.51767 -0.607171
                  }
                }
              }
            }
          }
        }
      }
    }
  }
  JOINT rButtock
  {
    OFFSET -8.77824 4.35084 1.2192
    CHANNELS 3 Zrotation Xrotation Yrotation
    JOINT rThigh
    {
      OFFSET 0 -1.70687 -2.19456
      CHANNELS 3 Zrotation Xrotation Yrotation
      JOINT rShin
      {
        OFFSET 0 -36.8199 0.73152
        CHANNELS 3 Zrotation Xrotation Yrotation
        JOINT rFoot
        {
          OFFSET 0.73152 -45.1104 -5.12064
          CHANNELS 3 Zrotation Xrotation Yrotation
          End Site
          {
            OFFSET -1.1221 -3.69964 12.103
          }
        }
      }
    }
  }
  JOINT lButtock
  {
    OFFSET 8.77824 4.35084 1.2192
    CHANNELS 3 Zrotation Xrotation Yrotation
    JOINT lThigh
    {
      OFFSET 0 -1.70687 -2.19456
      CHANNELS 3 Zrotation Xrotation Yrotation
      JOINT lShin
      {
        OFFSET 0 -36.8199 0.73152
        CHANNELS 3 Zrotation Xrotation Yrotation
        JOINT lFoot
        {
          OFFSET -0.73152 -45.1104 -5.12064
          CHANNELS 3 Zrotation Xrotation Yrotation
          End Site
          {
            OFFSET 1.1221 -3.69964 12.103
          }
        }
      }
    }
  }
}
MOTION
Frames:	7
Frame Time:	0.00833333
3.14047 84.4695 -17.133 0.0 0.0 0.0 -0.87056 -0.0041629 -0.0242191 -0.239929 -0.00488339 -0.0415688 2.38212e-14 0.0 -6.86312e-23 7.15314e-14 3.18055e-15 0.0 -0.0 0.0 0.0 -0.0 0.0 0.0 1.20257e-14 3.02836e-17 1.49089e-16 2.52099e-13 3.60297e-16 1.59028e-15 4.31368e-12 -1.26964e-12 -4.13472e-14 4.9377e-11 1.40909e-12 9.54166e-14 1.16468e-10 3.02038e-13 1.24042e-13 2.01131e-10 5.1843e-13 2.09917e-13 1.16472e-10 3.0255e-13 1.11319e-13 7.73091 5.47488 0.417314 1.16467e-10 3.02053e-13 1.24042e-13 2.90554 0.965183 0.102902 1.16478e-10 3.02153e-13 1.25632e-13 10.2786 0.731801 0.0259123 1.16466e-10 3.0255e-13 1.33583e-13 2.22167 -0.733487 -0.20892 1.19286e-14 3.14484e-17 -1.49089e-16 2.48991e-13 5.40446e-16 0.0 4.31393e-12 1.31317e-12 -2.8625e-14 4.93826e-11 -1.17226e-12 1.01778e-13 1.16485e-10 3.05862e-13 1.24042e-13 2.01177e-10 5.31153e-13 2.23434e-13 1.16482e-10 3.05333e-13 1.30403e-13 -7.73091 5.47488 -0.417314 1.16485e-10 3.05333e-13 1.24042e-13 -2.90554 0.965183 -0.102902 1.16483e-10 3.05631e-13 1.26427e-13 -10.2786 0.731801 -0.0259123 1.16491e-10 3.08116e-13 1.17681e-13 -2.22167 -0.733487 0.20892 -2.03217e-16 0.0 -3.88251e-19 -0.12615 -2.00808 -0.0156884 -0.00931072 -1.91644 -0.077713 -0.533582 3.92362 0.141956 2.03217e-16 0.0 3.88251e-19 -1.19279 -5.21056 0.101663 0.000660623 3.8843 -0.0130374 0.539291 1.32552 -0.0888418
2.74991 83.6334 -18.6536 -2.6801 1.3294 1.7595 -0.0608614 0.375799 -0.49142 0.583748 -1.62412 -0.148771 -4.56247 0.488353 -1.92399 5.26297 0.131214 -2.71141 -0.0 0.0 0.0 -0.0 0.0 0.0 -1.52123e-14 -2.76842e-14 -7.85355e-15 21.8324 5.49435 -0.95063 -3.59102 -1.52392 5.72035 0.00311185 1.23916 0.174006 3.04746e-10 -4.18159e-10 3.25626e-10 5.27822e-10 -7.2378e-10 5.61826e-10 3.04748e-10 -4.18157e-10 3.25612e-10 7.73091 5.47488 0.417314 3.04744e-10 -4.18158e-10 3.25627e-10 2.90554 0.965183 0.102902 3.04754e-10 -4.18157e-10 3.25627e-10 10.2786 0.731801 0.0259123 3.04742e-10 -4.18157e-10 3.25635e-10 2.22167 -0.733487 -0.20892 -1.52594e-14 -2.76819e-14 -8.12804e-15 -23.6214 6.95421 1.23349 4.55488 -2.14092 -7.03525 -7.17355e-05 0.196203 -0.0275741 4.62047e-10 2.46889e-10 -5.0373e-11 7.98325e-10 4.26359e-10 -8.80427e-11 4.62044e-10 2.46888e-10 -5.0361e-11 -7.73091 5.47488 -0.417314 4.62048e-10 2.46889e-10 -5.0371e-11 -2.90554 0.965183 -0.102902 4.62044e-10 2.46889e-10 -5.0369e-11 -10.2786 0.731801 -0.0259123 4.62053e-10 2.46891e-10 -5.03782e-11 -2.22167 -0.733487 0.20892 -2.03217e-16 0.0 -3.88251e-19 0.81711 -2.65504 0.514327 -0.0058672 2.98532 0.0229594 -0.738645 0.603433 -3.41934 2.03217e-16 0.0 3.88251e-19 0.142275 -5.74384 0.33367 -0.0098807 8.25054 -0.0790574 0.533324 -1.65666 0.108909
2.74983 83.6328 -18.6535 -2.6852 1.3688 1.753 0.799792 0.777543 -0.988654 1.44963 -3.33588 -0.263271 -9.34664 1.00427 -3.95984 10.8317 0.266392 -5.58141 -0.0 0.0 0.0 -0.0 0.0 0.0 -4.57105e-14 -5.84307e-14 -1.6114e-14 45.1123 11.2925 -1.98346 -7.0568 -3.0834 11.7783 -0.00180616 2.55661 0.359283 5.0919e-10 -8.74917e-10 6.81514e-10 8.82569e-10 -1.51437e-09 1.17586e-09 5.09191e-10 -8.74914e-10 6.815e-10 7.73091 5.47488 0.417314 5.09188e-10 -8.74914e-10 6.81517e-10 2.90554 0.965183 0.102902 5.09197e-10 -8.74914e-10 6.81515e-10 10.2786 0.731801 0.0259123 5.09186e-10 -8.74914e-10 6.81523e-10 2.22167 -0.733487 -0.20892 -4.57024e-14 -5.84272e-14 -1.63656e-14 -48.9277 14.297 2.59858 8.80374 -4.29716 -14.505 6.07239e-05 0.397098 -0.0558086 8.32049e-10 5.021e-10 -1.06425e-10 1.43765e-09 8.67009e-10 -1.85966e-10 8.32045e-10 5.021e-10 -1.06407e-10 -7.73091 5.47488 -0.417314 8.3205e-10 5.021e-10 -1.06421e-10 -2.90554 0.965183 -0.102902 8.32045e-10 5.021e-10 -1.06419e-10 -10.2786 0.731801 -0.0259123 8.32053e-10 5.02102e-10 -1.06429e-10 -2.22167 -0.733487 0.20892 -2.03217e-16 0.0 -3.88251e-19 1.82731 -3.34066 1.07454 -0.0211261 8.16868 0.130647 -1.40403 -2.88217 -7.19716 2.03217e-16 0.0 3.88251e-19 1.5581 -6.30877 0.57827 -0.00974906 12.865 -0.150955 0.548812 -4.80855 0.314697
2.73179 83.6317 -18.6503 -2.756 1.3322 1.7543 1.57713 1.13541 -1.42607 2.21286 -4.86252 -0.364306 -13.5892 1.45845 -5.77363 15.826 0.390117 -8.13439 -0.0 0.0 0.0 -0.0 0.0 0.0 -6.96884e-14 -8.31132e-14 -2.38588e-14 66.0638 16.4645 -2.96027 -9.87309 -4.38979 17.207 -0.0132845 3.71734 0.522997 6.81301e-10 -1.25508e-09 9.76629e-10 1.1812e-09 -2.17238e-09 1.68506e-09 6.813e-10 -1.25508e-09 9.76614e-10 7.73091 5.47488 0.417314 6.81298e-10 -1.25508e-09 9.76633e-10 2.90554 0.965183 0.102902 6.81306e-10 -1.25508e-09 9.76629e-10 10.2786 0.731801 0.0259123 6.81295e-10 -1.25508e-09 9.76637e-10 2.22167 -0.733487 -0.20892 -6.96355e-14 -8.31087e-14 -2.40859e-14 -71.815 20.8225 3.93032 12.1197 -6.03626 -21.2142 0.000351366 0.588609 -0.0827261 1.15317e-09 7.40056e-10 -1.51367e-10 1.99262e-09 1.27802e-09 -2.64575e-10 1.15317e-09 7.40055e-10 -1.51344e-10 -7.73091 5.47488 -0.417314 1.15317e-09 7.40056e-10 -1.51361e-10 -2.90554 0.965183 -0.102902 1.15317e-09 7.40055e-10 -1.5136e-10 -10.2786 0.731801 -0.0259123 1.15318e-09 7.40057e-10 -1.5137e-10 -2.22167 -0.733487 0.20892 -2.03217e-16 0.0 -3.88251e-19 2.73961 -3.94778 1.57642 -0.0514644 12.7887 0.229825 -2.3841 -5.93156 -10.5981 2.03217e-16 0.0 3.88251e-19 2.82546 -6.81002 0.799137 0.000507476 16.983 -0.218219 0.583519 -7.62073 0.50872
2.70401 83.6364 -18.634 -2.8644 1.2534 1.6983 2.13283 1.38389 -1.71371 2.7326 -5.92647 -0.430609 -16.5475 1.76464 -7.03065 19.3592 0.488433 -9.89463 -0.0 0.0 0.0 -0.0 0.0 0.0 -7.73654e-14 -9.26356e-14 -3.03147e-14 80.7902 20.0883 -3.69501 -11.6937 -5.23617 21.0187 -0.02475 4.48642 0.63183 7.72578e-10 -1.44376e-09 1.11981e-09 1.33955e-09 -2.49893e-09 1.93218e-09 7.72576e-10 -1.44375e-09 1.11979e-09 7.73091 5.47488 0.417314 7.72575e-10 -1.44375e-09 1.11981e-09 2.90554 0.965183 0.102902 7.72582e-10 -1.44375e-09 1.11981e-09 10.2786 0.731801 0.0259123 7.72571e-10 -1.44375e-09 1.11982e-09 2.22167 -0.733487 -0.20892 -7.72942e-14 -9.26309e-14 -3.05134e-14 -87.9658 25.3426 4.96081 14.1808 -7.10127 -25.9184 0.000702251 0.756663 -0.106348 1.3521e-09 9.3487e-10 -1.68534e-10 2.33671e-09 1.61491e-09 -2.949e-10 1.35209e-09 9.34869e-10 -1.68509e-10 -7.73091 5.47488 -0.417314 1.3521e-09 9.3487e-10 -1.68528e-10 -2.90554 0.965183 -0.102902 1.35209e-09 9.3487e-10 -1.68527e-10 -10.2786 0.731801 -0.0259123 1.3521e-09 9.34871e-10 -1.68538e-10 -2.22167 -0.733487 0.20892 -2.03217e-16 0.0 -3.88251e-19 3.38169 -4.35965 1.93083 -0.0821068 16.0007 0.301638 -3.27734 -8.00336 -12.9815 2.03217e-16 0.0 3.88251e-19 3.71249 -7.15233 0.959591 0.0134906 19.8594 -0.267683 0.624471 -9.58392 0.668982
2.67211 83.6424 -18.6178 -3.001 1.2086 1.6264 2.37544 1.47807 -1.78929 2.91644 -6.33667 -0.447105 -17.7487 1.86647 -7.50494 20.8578 0.554159 -10.5381 -0.0 0.0 0.0 -0.0 0.0 0.0 -5.54306e-14 -7.77099e-14 -3.7469e-14 86.6005 21.5641 -4.00638 -12.3857 -5.55692 22.5376 -0.028793 4.69169 0.660959 7.41218e-10 -1.34294e-09 1.0092e-09 1.28503e-09 -2.32438e-09 1.74147e-09 7.41216e-10 -1.34293e-09 1.00918e-09 7.73091 5.47488 0.417314 7.41214e-10 -1.34293e-09 1.0092e-09 2.90554 0.965183 0.102902 7.41222e-10 -1.34293e-09 1.0092e-09 10.2786 0.731801 0.0259123 7.41211e-10 -1.34293e-09 1.0092e-09 2.22167 -0.733487 -0.20892 -5.53823e-14 -7.77063e-14 -3.7627e-14 -94.3355 27.0759 5.39963 14.932 -7.47651 -27.7598 0.00103134 0.907519 -0.127554 1.36898e-09 1.08829e-09 -1.37595e-10 2.36683e-09 1.88114e-09 -2.41654e-10 1.36897e-09 1.08829e-09 -1.37572e-10 -7.73091 5.47488 -0.417314 1.36898e-09 1.08829e-09 -1.3759e-10 -2.90554 0.965183 -0.102902 1.36897e-09 1.08829e-09 -1.3759e-10 -10.2786 0.731801 -0.0259123 1.36898e-09 1.0883e-09 -1.376e-10 -2.22167 -0.733487 0.20892 -2.03217e-16 0.0 -3.88251e-19 3.63357 -4.49463 2.07759 -0.0955095 17.2388 0.329977 -3.66023 -8.79431 -13.8702 2.03217e-16 0.0 3.88251e-19 4.06277 -7.27029 1.03481 0.0193172 20.9992 -0.288121 0.656178 -10.3603 0.783434
2.65817 83.6466 -18.6077 -3.0377 1.155 1.5853 2.39305 1.46215 -1.71346 2.86162 -6.2802 -0.427853 -17.701 1.82364 -7.41994 20.8989 0.597352 -10.3843 -0.0 0.0 0.0 -0.0 0.0 0.0 -1.2668e-14 -4.54747e-14 -4.5003e-14 85.9915 21.5094 -3.99169 -12.3315 -5.5369 22.4119 -0.0262121 4.49501 0.633114 6.22711e-10 -1.03635e-09 7.1926e-10 1.07923e-09 -1.79366e-09 1.24141e-09 6.2271e-10 -1.03635e-09 7.19242e-10 7.73091 5.47488 0.417314 6.22707e-10 -1.03635e-09 7.19257e-10 2.90554 0.965183 0.102902 6.22716e-10 -1.03635e-09 7.19258e-10 10.2786 0.731801 0.0259123 6.22704e-10 -1.03635e-09 7.19259e-10 2.22167 -0.733487 -0.20892 -1.26717e-14 -4.5473e-14 -4.51117e-14 -93.6258 26.8281 5.36251 14.8436 -7.43076 -27.5417 0.0013474 1.04534 -0.14693 1.25634e-09 1.21125e-09 -7.27327e-11 2.17356e-09 2.09532e-09 -1.29476e-10 1.25634e-09 1.21125e-09 -7.27158e-11 -7.73091 5.47488 -0.417314 1.25635e-09 1.21125e-09 -7.27303e-11 -2.90554 0.965183 -0.102902 1.25634e-09 1.21125e-09 -7.27318e-11 -10.2786 0.731801 -0.0259123 1.25635e-09 1.21125e-09 -7.27413e-11 -2.22167 -0.733487 0.20892 -2.03217e-16 0.0 -3.88251e-19 3.60418 -4.4322 2.0758 -0.0923451 17.0673 0.325683 -3.59004 -8.69613 -13.6717 2.03217e-16 0.0 3.88251e-19 4.02867 -7.22814 1.04902 0.0173433 20.8983 -0.286603 0.675401 -10.289 0.863614
